<svg xmlns="http://www.w3.org/2000/svg" version="1.1" xmlns:xlink="http://www.w3.org/1999/xlink" xmlns:svgjs="http://svgjs.dev/svgjs" width="2000" height="2250" viewBox="0 0 2000 2250"><g transform="matrix(1,0,0,1,0.00014687500004129106,0)"><svg viewBox="0 0 320 360" data-background-color="#ffffff" preserveAspectRatio="xMidYMid meet" height="2250" width="2000" xmlns="http://www.w3.org/2000/svg" xmlns:xlink="http://www.w3.org/1999/xlink"><g id="tight-bounds" transform="matrix(1,0,0,1,0.000023499999997511622,0)"><svg viewBox="0 0 320 360" height="360" width="320"><g><svg></svg></g><g><svg viewBox="0 0 320 360" height="360" width="320"><g><path transform="translate(-74.99272,-51.79039) scale(4.65793,4.65793)" d="M20.6 59.9l0.8 1-0.4-1.3c-0.1-0.6-0.8 0.1-0.4 0.3M21.5 59.3c0.3 0.5 0.6 1 0.6 1.5 0 0.7 0.6 1 1.1 1.2-0.7-0.8-1.1-3-1.7-2.7M59.9 16.9c1.7 0 3.3-0.2 5.1 0.2 4.4 1.1 8.1 3.3 10.6 6.4l7 11.2c0.3 2.8 0.9 5.9 0.8 9.3 0.7 0 0.6-1 1.4-1.2-0.8 2-1.2 4.5-1.4 7.4-0.5-1.6 0-4 0.1-5.3-0.7 1.1-1.1 0.3-1.1-0.2 0.1-0.8-0.3-0.7-0.6-1-1.1-1-1.8-2.1-2.6-3.8 0.5-1.3 0.6-3.2-1-4.2-0.5-0.3-1.1-0.8-1.4-1.6-0.4-1.1-1.1-2.4-0.9-4.1 0.1-0.5-1.5 1.1-2.4 0.4-3.9-2.7-7.8-5.8-12.5-8.4-2.5 0-4.3-0.9-5.2-2-0.8-1-0.2-2.3 1-2.4 0.7 0 1.5-0.2 2.1 0.2 0.1-0.4 0.5-0.9 1-0.9M50 14.6l0.2 0.1c1 0.2 1.5 1.6 2.6 1.1 0 0.7 0.1 1.4-0.1 1.9-0.3 0.8-1.2 0.8-1.9 0.8-6.7-0.4-10.6 2.4-14.7 4.8-1.1 0.7-2.3 1.2-3.2 2.1-4.3 4-9 7.7-10.1 15.1l-0.9 8.2c-0.1 0.9-1.1 1.8-0.9 2.9l0.7 4.9c-0.7-0.7-1.1 0.2-0.9 0.6 0.1 0.3 0.5 1.3 1.1 0.4 0.8 1.5 1.6 4.4 2.7 5.7 3.4 4 7.8 7.6 11.4 11.2 0.9-0.2 1.6-0.2 1.8-0.8 0.3 0.6-0.3 1.2-0.8 1.3 1.6 1 3.4 1.9 5.8 2.1 3.1 0.2 6 0.7 8.7 1.4 1.4-0.4 2.8-0.6 4.3-0.7 0.5 0 0.8-0.8 1.4-1l0.1-1c0.6 0.9 0.5-0.3 0.1-0.9 0.7 0.6 0.9 1.1 1.2 1.5 0-0.3 0.8-1.4 0.8-0.1l0.2-1.3c0.3-0.2 0.4 1.1 0.7 0.2 0.3-0.9 0.9-0.2 1.5-0.5-0.2 0.4-0.1 1.2 0.6 0.7l0.8-0.7c0.5 1.2 1.3 0.7 1.7 0.5 4.4-2.8 8.8-6.1 13-9.4l-0.1 1.3 0.5-1.6c0.5 0.5 0.9 0.1 1.1-0.2 0.6-1 1.4-2 2.7-2.9-1.6 4.3-3.5 7.7-5.9 10.5l-1 1.2c0 0.7-0.2 1.6-1 1.7-0.4 0.1-1.2-0.2-1.8 0.4-0.3 0.4 0.7 1.2-0.1 0.6-0.7-0.5-1.4 0-2.2 0.2-0.6 0.2 0.4 0.8 0.6 1.2 0.2 0.4 0.4 0.8 0.3 1.3l-1.1-1.2c-1.3 0.7-2.1 2-3.2 3-0.5 0.4-0.3 1.1-0.3 1.7-0.7 0-1.5-0.2-1.9 0.2-0.3 0.4-0.2 1-0.2 1.6-1-0.1-1.1-1.6-2-1.3-0.9 0.2-1.9 0.3-2.7 0.8 0.6 1.2-1 0.5-0.8 0.7-1.5-0.9-2.8-1.6-4.4-1-3.4-1.1-7.6-0.6-10.7-0.2 0-0.5 0.1-1-0.1-1.1-0.2 0.5-0.8 0.3-0.7 0.3-1.9-1.3-3.8-2.1-5.8-3.2-1.8 0.2-3.5-0.7-4-1.2-1.4-1.3-3-0.6-4.3-0.9-2.8-0.7-3.8-3.6-4.1-5.6-0.2-1-1-1.4-1.3-1.3-1.3-4.2-3.3-8-4.9-11.9-0.4-1-0.3-2-0.3-3.1 0.5 0.2 1 0.1 0.9-0.6-0.5-3.3-1.7-5.8-3-8.2 0.7-3.4 0.8-7.4 2.4-10.4 1.4-2.7 4-4.1 5.8-6.4 0.6-0.8 0.6-1.9 1.2-2.6 2-2 4-4.1 6.2-5.9 1-0.8 2.2 0 3.7-0.3 0.5-1.8 2.5-3.4 4.4-2.9 0.8 0.2 2.4-1.9 2.9-2.1 0.8-0.3 0.4 0.8 0.4 1.5 1.9-1.5 4.5-2.3 6.9-3.2" fill="#919591" fill-rule="nonzero" stroke="none" stroke-width="1" stroke-linecap="butt" stroke-linejoin="miter" stroke-miterlimit="10" stroke-dasharray="" stroke-dashoffset="0" font-family="none" font-weight="none" font-size="none" text-anchor="none" style="mix-blend-mode: normal" data-fill-palette-color="tertiary"></path></g><g transform="matrix(1,0,0,1,64,118.64512650359566)"><svg viewBox="0 0 192 122.70974699280866" height="122.70974699280866" width="192"><g><svg viewBox="0 0 192 122.70974699280866" height="122.70974699280866" width="192"><g><svg viewBox="0 0 192 122.70974699280866" height="122.70974699280866" width="192"><g transform="matrix(1,0,0,1,0,73.31574156619601)"><svg viewBox="0 0 192 49.39400542661265" height="49.39400542661265" width="192"><g id="textblocktransform"><svg viewBox="0 0 192 49.39400542661265" height="49.39400542661265" width="192" id="textblock"><g><svg viewBox="0 0 192 34.62916358253146" height="34.62916358253146" width="192"><g transform="matrix(1,0,0,1,0,0)"><svg width="192" viewBox="0.25 -35.85 202.63 36.550000000000004" height="34.62916358253146" data-palette-color="#919591"><path d="M10.05-27.3L10.05-27.3 16.75-7.15 17-7.15 24-28.8 20.95-29 20.95-33.25 32.45-33.25 32.45-29.2 30.8-29.05Q30.15-29 29.85-28.68 29.55-28.35 29.25-27.55L29.25-27.55 19.8 0 13.3 0 3.1-28.85 0.25-29 0.25-33.25 13.15-33.25 13.15-29.2 11.5-29.05Q9.95-28.95 9.95-27.85L9.95-27.85Q9.95-27.6 10.05-27.3ZM34.45-25.15L43.4-25.15 43.4-4.15 46.25-4 46.25 0 34.35 0 34.35-3.8 36-3.95Q37.45-4.1 37.45-5.55L37.45-5.55 37.45-19.45Q37.45-20.3 37.17-20.6 36.9-20.9 36.2-20.9L36.2-20.9 34.45-21 34.45-25.15ZM37.1-29.48Q36.05-30.5 36.05-32.1 36.05-33.7 37.1-34.77 38.15-35.85 39.85-35.85 41.55-35.85 42.62-34.77 43.7-33.7 43.7-32.1 43.7-30.5 42.62-29.48 41.55-28.45 39.85-28.45 38.15-28.45 37.1-29.48ZM63.35-21.15L63.35-25.15 73.9-25.15 73.9-21.25 72.34-21.15Q71.34-21.05 71-19.95L71-19.95 64.55 0 56.9 0 49.9-19.9Q49.65-20.6 49.37-20.85 49.1-21.1 48.45-21.15L48.45-21.15 47-21.25 47-25.15 58.75-25.15 58.75-21.15 55.7-21 60.85-4.55 60.95-4.55 65.95-21 63.35-21.15ZM98.49-24.15L98.49-24.15 98.49-5.55Q98.49-4.75 98.77-4.45 99.04-4.15 99.74-4.1L99.74-4.1 101.34-4 101.34 0 93.39 0 93.39-2.9 93.24-2.95Q90.74 0.65 86.39 0.65L86.39 0.65Q81.29 0.65 78.84-2.6 76.39-5.85 76.39-11.5L76.39-11.5Q76.39-18.3 79.69-22.1 82.99-25.9 89.59-25.9L89.59-25.9Q93.84-25.9 98.49-24.15ZM92.69-7.95L92.69-7.95 92.69-20.9Q91.29-21.55 88.84-21.55L88.84-21.55Q85.49-21.55 83.99-18.85 82.49-16.15 82.49-11.7L82.49-11.7Q82.49-3.6 87.69-3.6L87.69-3.6Q89.89-3.6 91.29-4.93 92.69-6.25 92.69-7.95ZM124.54-27.95L124.54-27.95Q123.99-28.9 120.44-28.9L120.44-28.9Q115.79-28.9 113.39-25.75 110.99-22.6 110.99-16.65L110.99-16.65Q110.99-4.3 120.24-4.3L120.24-4.3Q120.39-4.3 121.57-4.3 122.74-4.3 123.79-4.63 124.84-4.95 125.04-5.3 125.24-5.65 125.24-6.4L125.24-6.4 125.24-10.4 130.34-10.05 130.34-1.4Q126.44 0.65 120.44 0.65L120.44 0.65Q112.79 0.65 108.77-3.65 104.74-7.95 104.74-16.45L104.74-16.45Q104.74-21.15 106.09-24.65 107.44-28.15 109.74-30.1L109.74-30.1Q114.24-33.85 120.44-33.85L120.44-33.85Q125.44-33.85 129.84-31.8L129.84-31.8 129.84-23.3 124.74-22.95 124.74-26.85Q124.74-27.6 124.54-27.95ZM156.94-24.15L156.94-24.15 156.94-5.55Q156.94-4.75 157.21-4.45 157.49-4.15 158.19-4.1L158.19-4.1 159.79-4 159.79 0 151.84 0 151.84-2.9 151.69-2.95Q149.19 0.65 144.84 0.65L144.84 0.65Q139.74 0.65 137.29-2.6 134.84-5.85 134.84-11.5L134.84-11.5Q134.84-18.3 138.14-22.1 141.44-25.9 148.04-25.9L148.04-25.9Q152.29-25.9 156.94-24.15ZM151.14-7.95L151.14-7.95 151.14-20.9Q149.74-21.55 147.29-21.55L147.29-21.55Q143.94-21.55 142.44-18.85 140.94-16.15 140.94-11.7L140.94-11.7Q140.94-3.6 146.14-3.6L146.14-3.6Q148.34-3.6 149.74-4.93 151.14-6.25 151.14-7.95ZM165.94-5.6L165.94-5.6 165.94-19.45Q165.94-20.25 165.66-20.58 165.38-20.9 164.69-20.95L164.69-20.95 162.59-21.1 162.59-25.15 171.03-25.15 171.03-21.4Q171.94-23.35 173.84-24.63 175.74-25.9 178.21-25.9 180.69-25.9 182.94-24.8L182.94-24.8 182.94-17.35 178.28-17 178.28-19.3Q178.28-20.3 177.78-20.55L177.78-20.55Q177.24-20.8 176.44-20.8L176.44-20.8Q174.44-20.8 173.16-19.38 171.88-17.95 171.88-15.75L171.88-15.75 171.88-4.15 176.24-3.95 176.24 0 162.84 0 162.84-3.8 164.49-3.95Q165.24-4.05 165.59-4.38 165.94-4.7 165.94-5.6ZM191.48-30.45L191.48-30.45 194.73-30.45 194.73-25.15 201.38-25.15 200.88-20.95 194.73-20.95 194.73-7.8Q194.73-5.6 195.53-4.73 196.33-3.85 198.01-3.85 199.68-3.85 201.38-4.9L201.38-4.9 202.88-1.05Q200.38 0.7 196.53 0.7L196.53 0.7Q194.28 0.7 192.73 0.13 191.18-0.45 190.43-1.15 189.68-1.85 189.28-3.2 188.88-4.55 188.83-5.33 188.78-6.1 188.78-7.6L188.78-7.6 188.78-20.95 185.23-20.95 185.73-24.6Q188.08-24.8 189.28-26.28 190.48-27.75 191.48-30.45Z" opacity="1" transform="matrix(1,0,0,1,0,0)" fill="#919591" class="wordmark-text-0" data-fill-palette-color="primary" id="text-0"></path></svg></g></svg></g><g transform="matrix(1,0,0,1,0,39.68238964914878)"><svg viewBox="0 0 192 9.71161577746387" height="9.71161577746387" width="192"><g transform="matrix(1,0,0,1,0,0)"><svg width="192" viewBox="1.7 -35.85 920.3 46.55" height="9.71161577746387" data-palette-color="#636365"><path d="M25.45-8.9L25.45 0 1.7 0 1.7-4.05 3.35-4.2Q4.8-4.35 4.8-5.6L4.8-5.6 4.8-28.85 1.95-29 1.95-33.25 24.85-33.25 24.85-24.95 19.75-24.6 19.75-26.6Q19.75-27.45 19.5-27.8 19.25-28.15 18.3-28.15L18.3-28.15 10.9-28.15 10.9-19.6 22.45-19.6 22.45-14.5 10.9-14.5 10.9-5.15 18.95-5.15Q19.85-5.15 20.1-5.53 20.35-5.9 20.35-6.75L20.35-6.75 20.35-9.25 25.45-8.9ZM29.1-35.65L38.05-35.65 38.05-4.15 40.9-4 40.9 0 29 0 29-3.8 30.65-3.95Q32.1-4.1 32.1-5.55L32.1-5.55 32.1-30.2Q32.1-31.3 30.85-31.4L30.85-31.4 29.1-31.5 29.1-35.65ZM56.55-25.9L56.55-25.9Q60.3-25.9 62.5-24.08 64.7-22.25 64.7-18.95L64.7-18.95Q64.7-16.75 63.75-15.08 62.8-13.4 61.4-12.45 60-11.5 58-10.9L58-10.9Q54.65-9.9 50.45-9.9L50.45-9.9Q50.6-7.25 52.1-5.63 53.6-4 56.7-4 59.8-4 62.9-6.2L62.9-6.2 64.8-2.15Q63.8-1.25 61.43-0.3 59.05 0.65 56 0.65L56 0.65Q49.9 0.65 47.05-2.73 44.2-6.1 44.2-12 44.2-17.9 47.45-21.9 50.7-25.9 56.55-25.9ZM54.28-14.48Q56.1-14.8 57.65-15.93 59.2-17.05 59.2-18.6L59.2-18.6Q59.2-21.65 56.2-21.65L56.2-21.65Q53.4-21.65 51.9-19.43 50.4-17.2 50.25-14.1L50.25-14.1Q52.45-14.15 54.28-14.48ZM83.4-21.15L83.4-25.15 93.95-25.15 93.95-21.25 92.4-21.15Q91.4-21.05 91.05-19.95L91.05-19.95 84.6 0 76.95 0 69.95-19.9Q69.7-20.6 69.43-20.85 69.15-21.1 68.5-21.15L68.5-21.15 67.05-21.25 67.05-25.15 78.8-25.15 78.8-21.15 75.75-21 80.9-4.55 81-4.55 86-21 83.4-21.15ZM118.55-24.15L118.55-24.15 118.55-5.55Q118.55-4.75 118.83-4.45 119.1-4.15 119.8-4.1L119.8-4.1 121.4-4 121.4 0 113.45 0 113.45-2.9 113.3-2.95Q110.8 0.65 106.45 0.65L106.45 0.65Q101.35 0.65 98.9-2.6 96.45-5.85 96.45-11.5L96.45-11.5Q96.45-18.3 99.75-22.1 103.05-25.9 109.65-25.9L109.65-25.9Q113.9-25.9 118.55-24.15ZM112.75-7.95L112.75-7.95 112.75-20.9Q111.35-21.55 108.9-21.55L108.9-21.55Q105.55-21.55 104.05-18.85 102.55-16.15 102.55-11.7L102.55-11.7Q102.55-3.6 107.75-3.6L107.75-3.6Q109.95-3.6 111.35-4.93 112.75-6.25 112.75-7.95ZM129-30.45L129-30.45 132.25-30.45 132.25-25.15 138.9-25.15 138.4-20.95 132.25-20.95 132.25-7.8Q132.25-5.6 133.05-4.73 133.85-3.85 135.53-3.85 137.2-3.85 138.9-4.9L138.9-4.9 140.4-1.05Q137.9 0.7 134.05 0.7L134.05 0.7Q131.8 0.7 130.25 0.13 128.7-0.45 127.95-1.15 127.2-1.85 126.8-3.2 126.4-4.55 126.35-5.33 126.3-6.1 126.3-7.6L126.3-7.6 126.3-20.95 122.75-20.95 123.25-24.6Q125.6-24.8 126.8-26.28 128-27.75 129-30.45ZM154.85-25.9L154.85-25.9Q158.6-25.9 160.8-24.08 163-22.25 163-18.95L163-18.95Q163-16.75 162.05-15.08 161.1-13.4 159.7-12.45 158.3-11.5 156.3-10.9L156.3-10.9Q152.95-9.9 148.75-9.9L148.75-9.9Q148.9-7.25 150.4-5.63 151.9-4 155-4 158.1-4 161.2-6.2L161.2-6.2 163.1-2.15Q162.1-1.25 159.72-0.3 157.35 0.65 154.3 0.65L154.3 0.65Q148.2 0.65 145.35-2.73 142.5-6.1 142.5-12 142.5-17.9 145.75-21.9 149-25.9 154.85-25.9ZM152.58-14.48Q154.4-14.8 155.95-15.93 157.5-17.05 157.5-18.6L157.5-18.6Q157.5-21.65 154.5-21.65L154.5-21.65Q151.7-21.65 150.2-19.43 148.7-17.2 148.55-14.1L148.55-14.1Q150.75-14.15 152.58-14.48ZM185.95-5.6L185.95-5.6 185.95-12.7 177.45-28.85 175.1-29 175.1-33.25 187.3-33.25 187.3-29.2 185.8-29.05Q185-29 184.78-28.45 184.55-27.9 184.95-27.1L184.95-27.1 189.2-18.4 189.4-18.4 194.85-28.8 192.35-29 192.35-33.25 203.1-33.25 203.1-29.2 201.6-29.05Q200.65-28.95 199.9-27.55L199.9-27.55 192.05-12.7 192.05-4.4 195.95-4.25 195.95 0 181.85 0 181.85-4.05 184.5-4.2Q185.95-4.3 185.95-5.6ZM213-3.65L213-3.65Q218.45-3.65 218.45-12.45L218.45-12.45Q218.45-16.9 217.23-19.2 216-21.5 213.13-21.5 210.25-21.5 208.9-19.3 207.55-17.1 207.55-13.3L207.55-13.3Q207.55-6.25 210.15-4.45L210.15-4.45Q211.3-3.65 213-3.65ZM201.5-12.6L201.5-12.6Q201.5-16.3 202.6-19.03 203.7-21.75 205.55-23.2L205.55-23.2Q209.1-25.9 213.4-25.9L213.4-25.9Q216.4-25.9 218.48-24.93 220.55-23.95 221.73-22.68 222.9-21.4 223.73-18.98 224.55-16.55 224.55-13.25L224.55-13.25Q224.55-6.35 221.2-2.8 217.85 0.75 212.63 0.75 207.4 0.75 204.45-2.63 201.5-6 201.5-12.6ZM251.9-4.1L253.65-3.95 253.65 0 245.55 0 245.55-3.25Q242.8 0.65 237.45 0.65L237.45 0.65Q229.7 0.65 229.7-8L229.7-8 229.7-19.55Q229.7-20.9 228.45-20.95L228.45-20.95 226.85-21.05 226.85-25.15 235.65-25.15 235.65-9.3Q235.65-6.65 236.4-5.3 237.15-3.95 239.5-3.95 241.85-3.95 243.28-5.4 244.7-6.85 244.7-8.9L244.7-8.9 244.7-19.45Q244.7-20.25 244.43-20.58 244.15-20.9 243.45-20.95L243.45-20.95 241.85-21.05 241.85-25.15 250.65-25.15 250.65-5.55Q250.65-4.75 250.9-4.48 251.15-4.2 251.9-4.1L251.9-4.1ZM259.8-5.6L259.8-5.6 259.8-19.45Q259.8-20.25 259.53-20.58 259.25-20.9 258.55-20.95L258.55-20.95 256.45-21.1 256.45-25.15 264.9-25.15 264.9-21.4Q265.8-23.35 267.7-24.63 269.6-25.9 272.08-25.9 274.55-25.9 276.8-24.8L276.8-24.8 276.8-17.35 272.15-17 272.15-19.3Q272.15-20.3 271.65-20.55L271.65-20.55Q271.1-20.8 270.3-20.8L270.3-20.8Q268.3-20.8 267.03-19.38 265.75-17.95 265.75-15.75L265.75-15.75 265.75-4.15 270.1-3.95 270.1 0 256.7 0 256.7-3.8 258.35-3.95Q259.1-4.05 259.45-4.38 259.8-4.7 259.8-5.6ZM309.95-27.95L309.95-27.95Q309.4-28.9 305.85-28.9L305.85-28.9Q301.2-28.9 298.8-25.75 296.4-22.6 296.4-16.65L296.4-16.65Q296.4-4.3 305.65-4.3L305.65-4.3Q305.8-4.3 306.98-4.3 308.15-4.3 309.2-4.63 310.25-4.95 310.45-5.3 310.65-5.65 310.65-6.4L310.65-6.4 310.65-10.4 315.75-10.05 315.75-1.4Q311.85 0.65 305.85 0.65L305.85 0.65Q298.2 0.65 294.18-3.65 290.15-7.95 290.15-16.45L290.15-16.45Q290.15-21.15 291.5-24.65 292.85-28.15 295.15-30.1L295.15-30.1Q299.65-33.85 305.85-33.85L305.85-33.85Q310.85-33.85 315.25-31.8L315.25-31.8 315.25-23.3 310.15-22.95 310.15-26.85Q310.15-27.6 309.95-27.95ZM342.35-24.15L342.35-24.15 342.35-5.55Q342.35-4.75 342.63-4.45 342.9-4.15 343.6-4.1L343.6-4.1 345.2-4 345.2 0 337.25 0 337.25-2.9 337.1-2.95Q334.6 0.65 330.25 0.65L330.25 0.65Q325.15 0.65 322.7-2.6 320.25-5.85 320.25-11.5L320.25-11.5Q320.25-18.3 323.55-22.1 326.85-25.9 333.45-25.9L333.45-25.9Q337.7-25.9 342.35-24.15ZM336.55-7.95L336.55-7.95 336.55-20.9Q335.15-21.55 332.7-21.55L332.7-21.55Q329.35-21.55 327.85-18.85 326.35-16.15 326.35-11.7L326.35-11.7Q326.35-3.6 331.55-3.6L331.55-3.6Q333.75-3.6 335.15-4.93 336.55-6.25 336.55-7.95ZM351.35-5.6L351.35-5.6 351.35-19.45Q351.35-20.25 351.08-20.58 350.8-20.9 350.1-20.95L350.1-20.95 348-21.1 348-25.15 356.45-25.15 356.45-21.4Q357.35-23.35 359.25-24.63 361.15-25.9 363.63-25.9 366.1-25.9 368.35-24.8L368.35-24.8 368.35-17.35 363.7-17 363.7-19.3Q363.7-20.3 363.2-20.55L363.2-20.55Q362.65-20.8 361.85-20.8L361.85-20.8Q359.85-20.8 358.58-19.38 357.3-17.95 357.3-15.75L357.3-15.75 357.3-4.15 361.65-3.95 361.65 0 348.25 0 348.25-3.8 349.9-3.95Q350.65-4.05 351-4.38 351.35-4.7 351.35-5.6ZM376.9-30.45L376.9-30.45 380.15-30.45 380.15-25.15 386.8-25.15 386.3-20.95 380.15-20.95 380.15-7.8Q380.15-5.6 380.95-4.73 381.75-3.85 383.43-3.85 385.1-3.85 386.8-4.9L386.8-4.9 388.3-1.05Q385.8 0.7 381.95 0.7L381.95 0.7Q379.7 0.7 378.15 0.13 376.6-0.45 375.85-1.15 375.1-1.85 374.7-3.2 374.3-4.55 374.25-5.33 374.2-6.1 374.2-7.6L374.2-7.6 374.2-20.95 370.65-20.95 371.15-24.6Q373.5-24.8 374.7-26.28 375.9-27.75 376.9-30.45ZM426.75-11.65L426.75-11.65 426.75-2.6Q422.1 0.6 415.2 0.6 408.3 0.6 404.43-3.73 400.55-8.05 400.55-16.55L400.55-16.55Q400.55-20.3 401.53-23.3 402.5-26.3 404.08-28.25 405.65-30.2 407.75-31.5L407.75-31.5Q411.75-33.85 416.83-33.85 421.9-33.85 426.3-31.8L426.3-31.8 426.3-23.3 421.2-22.95 421.2-26.85Q421.2-27.6 421-27.95L421-27.95Q420.45-28.9 416.45-28.9L416.45-28.9Q406.8-28.9 406.8-16.95L406.8-16.95Q406.8-4.35 415.5-4.35L415.5-4.35Q418.95-4.35 420.8-5.55L420.8-5.55 420.8-13 420.75-13 416.9-13.15 416.9-17.4 429.35-17.4 429.35-13.4 428.2-13.3Q427.4-13.2 427.08-12.88 426.75-12.55 426.75-11.65ZM454.7-24.15L454.7-24.15 454.7-5.55Q454.7-4.75 454.98-4.45 455.25-4.15 455.95-4.1L455.95-4.1 457.55-4 457.55 0 449.6 0 449.6-2.9 449.45-2.95Q446.95 0.65 442.6 0.65L442.6 0.65Q437.5 0.65 435.05-2.6 432.6-5.85 432.6-11.5L432.6-11.5Q432.6-18.3 435.9-22.1 439.2-25.9 445.8-25.9L445.8-25.9Q450.05-25.9 454.7-24.15ZM448.9-7.95L448.9-7.95 448.9-20.9Q447.5-21.55 445.05-21.55L445.05-21.55Q441.7-21.55 440.2-18.85 438.7-16.15 438.7-11.7L438.7-11.7Q438.7-3.6 443.9-3.6L443.9-3.6Q446.1-3.6 447.5-4.93 448.9-6.25 448.9-7.95ZM462.4-20.95L460.3-21.1 460.3-25.15 468.75-25.15 468.75-21.9Q471.55-25.9 476.43-25.9 481.3-25.9 483-21.9L483-21.9Q485.8-25.9 490.6-25.9L490.6-25.9Q494.2-25.9 496.15-23.73 498.1-21.55 498.1-17.2L498.1-17.2 498.1-4.15 500.95-4 500.95 0 489.05 0 489.05-3.8 490.7-3.95Q491.45-4.05 491.78-4.38 492.1-4.7 492.15-5.55L492.15-5.55 492.15-15.9Q492.15-18.65 491.53-19.98 490.9-21.3 488.6-21.3 486.3-21.3 485.08-19.9 483.85-18.5 483.85-16.15L483.85-16.15 483.85-4.15 486.6-4 486.6 0 474.8 0 474.8-3.8 476.45-3.95Q477.2-4.05 477.55-4.38 477.9-4.7 477.9-5.6L477.9-5.6 477.9-15.9Q477.9-18.65 477.28-19.98 476.65-21.3 474.33-21.3 472-21.3 470.8-19.85 469.6-18.4 469.6-16.25L469.6-16.25 469.6-4.15 472.3-4 472.3 0 460.5 0 460.5-3.8 462.15-3.95Q462.9-4.05 463.25-4.38 463.6-4.7 463.6-5.6L463.6-5.6 463.65-5.6 463.65-19.4Q463.65-20.25 463.38-20.58 463.1-20.9 462.4-20.95L462.4-20.95ZM516.45-25.9L516.45-25.9Q520.2-25.9 522.4-24.08 524.6-22.25 524.6-18.95L524.6-18.95Q524.6-16.75 523.65-15.08 522.7-13.4 521.3-12.45 519.9-11.5 517.9-10.9L517.9-10.9Q514.55-9.9 510.35-9.9L510.35-9.9Q510.5-7.25 512-5.63 513.5-4 516.6-4 519.7-4 522.8-6.2L522.8-6.2 524.7-2.15Q523.7-1.25 521.33-0.3 518.95 0.65 515.9 0.65L515.9 0.65Q509.8 0.65 506.95-2.73 504.1-6.1 504.1-12 504.1-17.9 507.35-21.9 510.6-25.9 516.45-25.9ZM514.18-14.48Q516-14.8 517.55-15.93 519.1-17.05 519.1-18.6L519.1-18.6Q519.1-21.65 516.1-21.65L516.1-21.65Q513.3-21.65 511.8-19.43 510.3-17.2 510.15-14.1L510.15-14.1Q512.35-14.15 514.18-14.48ZM532.1 0.75Q530.35 0.75 529.4-0.23 528.45-1.2 528.45-2.78 528.45-4.35 529.43-5.38 530.4-6.4 532.08-6.4 533.75-6.4 534.75-5.43 535.75-4.45 535.75-2.88 535.75-1.3 534.8-0.28 533.85 0.75 532.1 0.75ZM532.1-17.65Q530.35-17.65 529.4-18.63 528.45-19.6 528.45-21.18 528.45-22.75 529.43-23.78 530.4-24.8 532.08-24.8 533.75-24.8 534.75-23.83 535.75-22.85 535.75-21.28 535.75-19.7 534.8-18.68 533.85-17.65 532.1-17.65ZM569.55-27.95L569.55-27.95Q569-28.9 565.45-28.9L565.45-28.9Q560.8-28.9 558.4-25.75 556-22.6 556-16.65L556-16.65Q556-4.3 565.25-4.3L565.25-4.3Q565.4-4.3 566.58-4.3 567.75-4.3 568.8-4.63 569.85-4.95 570.05-5.3 570.25-5.65 570.25-6.4L570.25-6.4 570.25-10.4 575.35-10.05 575.35-1.4Q571.45 0.65 565.45 0.65L565.45 0.65Q557.8 0.65 553.78-3.65 549.75-7.95 549.75-16.45L549.75-16.45Q549.75-21.15 551.1-24.65 552.45-28.15 554.75-30.1L554.75-30.1Q559.25-33.85 565.45-33.85L565.45-33.85Q570.45-33.85 574.85-31.8L574.85-31.8 574.85-23.3 569.75-22.95 569.75-26.85Q569.75-27.6 569.55-27.95ZM579.5-35.65L588.45-35.65 588.45-4.15 591.3-4 591.3 0 579.4 0 579.4-3.8 581.05-3.95Q582.5-4.1 582.5-5.55L582.5-5.55 582.5-30.2Q582.5-31.3 581.25-31.4L581.25-31.4 579.5-31.5 579.5-35.65ZM594.5-25.15L603.45-25.15 603.45-4.15 606.3-4 606.3 0 594.4 0 594.4-3.8 596.05-3.95Q597.5-4.1 597.5-5.55L597.5-5.55 597.5-19.45Q597.5-20.3 597.23-20.6 596.95-20.9 596.25-20.9L596.25-20.9 594.5-21 594.5-25.15ZM597.15-29.48Q596.1-30.5 596.1-32.1 596.1-33.7 597.15-34.77 598.2-35.85 599.9-35.85 601.6-35.85 602.68-34.77 603.75-33.7 603.75-32.1 603.75-30.5 602.68-29.48 601.6-28.45 599.9-28.45 598.2-28.45 597.15-29.48ZM615.25-12.85Q615.25-8.6 616.85-6.25 618.45-3.9 621.48-3.9 624.5-3.9 627.45-6.05L627.45-6.05 629.6-2.2Q626.05 0.7 620.7 0.7 615.35 0.7 612.28-2.68 609.2-6.05 609.2-12.65 609.2-19.25 612.73-22.58 616.25-25.9 620.68-25.9 625.1-25.9 628.9-23.85L628.9-23.85 628.9-17.35 624.3-17 624.3-19.4Q624.3-20.75 623.33-21.08 622.35-21.4 621.3-21.4L621.3-21.4Q615.25-21.4 615.25-12.85L615.25-12.85ZM635.6-5.6L635.6-5.6 635.6-29.95Q635.6-30.75 635.33-31.05 635.05-31.35 634.35-31.4L634.35-31.4 632.6-31.5 632.6-35.65 641.5-35.65 641.5-14Q644.25-14.25 646.3-15.7 648.35-17.15 649.1-19.5L649.1-19.5Q649.25-20 649.25-20.3L649.25-20.3Q649.25-21.15 648.3-21.15L648.3-21.15 646.4-21.25 646.4-25.15 656.75-25.15 656.75-21.1 654.35-21Q653.7-15.9 649.95-12.95L649.95-12.95 654.85-4.15 657.9-4 657.9 0 650.6 0 644.9-10.4Q643.25-9.95 641.5-9.7L641.5-9.7 641.5-4.15 641.55-4.15 644.4-4 644.4 0 632.5 0 632.5-3.8 634.15-3.95Q634.9-4.05 635.25-4.38 635.6-4.7 635.6-5.6ZM668.75-3.95L668.75-3.95 663.6 7.75 660.45 6.8 662-3.35Q662.35-5.85 664.45-5.85L664.45-5.85Q665.5-5.85 666.07-5.53 666.65-5.2 667.02-5 667.4-4.8 667.55-4.7 667.7-4.6 668.15-4.33 668.6-4.05 668.75-3.95ZM692.75-4.5L692.75-4.5Q698.75-4.5 698.75-9.3L698.75-9.3Q698.75-11.8 696.1-13L696.1-13Q694.7-13.7 692.47-14.3 690.25-14.9 688.77-15.53 687.3-16.15 685.8-17.25L685.8-17.25Q682.85-19.45 682.85-24.03 682.85-28.6 686.02-31.23 689.2-33.85 694.32-33.85 699.45-33.85 703.85-31.8L703.85-31.8 703.85-24.3 698.75-23.95 698.75-26.85Q698.75-27.6 698.55-27.95L698.55-27.95Q698-28.9 695.02-28.9 692.05-28.9 690.62-27.85 689.2-26.8 689.2-24.6L689.2-24.6Q689.2-23 690.4-21.8L690.4-21.8Q691.2-21 692.77-20.48 694.35-19.95 696.12-19.4 697.9-18.85 699.27-18.2 700.65-17.55 702.15-16.4L702.15-16.4Q705.2-14.15 705.2-9.45 705.2-4.75 701.82-2.05 698.45 0.65 692.92 0.65 687.4 0.65 683-1.4L683-1.4 683-9.3 688.1-9.65 688.1-6.6Q688.1-5.85 688.3-5.5 688.5-5.15 689.52-4.83 690.55-4.5 692.75-4.5ZM711.5-5.6L711.5-5.6 711.5-29.95Q711.5-30.75 711.22-31.05 710.95-31.35 710.25-31.4L710.25-31.4 708.5-31.5 708.5-35.65 717.4-35.65 717.4-22.2Q720-25.9 724.7-25.9L724.7-25.9Q728.5-25.9 730.57-23.73 732.65-21.55 732.65-17.2L732.65-17.2 732.65-4.15 735.5-4 735.5 0 723.6 0 723.6-3.8 725.25-3.95Q726-4.05 726.35-4.38 726.7-4.7 726.7-5.6L726.7-5.6 726.7-15.9Q726.7-18.5 725.88-19.9 725.05-21.3 722.67-21.3 720.3-21.3 718.88-19.83 717.45-18.35 717.45-16.25L717.45-16.25 717.45-4.15 720.3-4 720.3 0 708.4 0 708.4-3.8 710.05-3.95Q710.8-4.05 711.15-4.38 711.5-4.7 711.5-5.6ZM749.95-3.65L749.95-3.65Q755.4-3.65 755.4-12.45L755.4-12.45Q755.4-16.9 754.17-19.2 752.95-21.5 750.07-21.5 747.2-21.5 745.85-19.3 744.5-17.1 744.5-13.3L744.5-13.3Q744.5-6.25 747.1-4.45L747.1-4.45Q748.25-3.65 749.95-3.65ZM738.45-12.6L738.45-12.6Q738.45-16.3 739.55-19.03 740.65-21.75 742.5-23.2L742.5-23.2Q746.05-25.9 750.35-25.9L750.35-25.9Q753.35-25.9 755.42-24.93 757.5-23.95 758.67-22.68 759.85-21.4 760.67-18.98 761.5-16.55 761.5-13.25L761.5-13.25Q761.5-6.35 758.15-2.8 754.8 0.75 749.57 0.75 744.35 0.75 741.4-2.63 738.45-6 738.45-12.6ZM767.65 4.75L767.65 4.75 767.65-19.45Q767.65-20.3 767.37-20.63 767.1-20.95 766.4-20.95L766.4-20.95 764.3-21.1 764.3-25.15 772.75-25.15 772.75-21.9Q773.55-23.4 775.65-24.65 777.75-25.9 780.65-25.9L780.65-25.9Q789.7-25.9 789.7-13.2L789.7-13.2Q789.7-6.45 786.75-2.85 783.8 0.75 778.75 0.75L778.75 0.75Q775.75 0.75 773.4-0.7L773.4-0.7 773.4 6.2 777.45 6.4 777.45 10.35 764.55 10.35 764.55 6.55 766.2 6.4Q766.95 6.3 767.3 5.98 767.65 5.65 767.65 4.75ZM783.5-12.7L783.5-12.7Q783.5-21.05 778.45-21.05L778.45-21.05Q776.35-21.05 774.87-19.78 773.4-18.5 773.4-16.75L773.4-16.75 773.4-5.25Q775.3-4 778.02-4 780.75-4 782.12-6.5 783.5-9 783.5-12.7ZM801.7-3.95L801.7-3.95 796.55 7.75 793.4 6.8 794.95-3.35Q795.3-5.85 797.4-5.85L797.4-5.85Q798.45-5.85 799.02-5.53 799.6-5.2 799.97-5 800.35-4.8 800.5-4.7 800.65-4.6 801.1-4.33 801.55-4.05 801.7-3.95ZM825.7-4.5L825.7-4.5Q831.7-4.5 831.7-9.3L831.7-9.3Q831.7-11.8 829.05-13L829.05-13Q827.65-13.7 825.42-14.3 823.2-14.9 821.72-15.53 820.25-16.15 818.75-17.25L818.75-17.25Q815.8-19.45 815.8-24.03 815.8-28.6 818.97-31.23 822.15-33.85 827.27-33.85 832.4-33.85 836.8-31.8L836.8-31.8 836.8-24.3 831.7-23.95 831.7-26.85Q831.7-27.6 831.5-27.95L831.5-27.95Q830.95-28.9 827.97-28.9 825-28.9 823.57-27.85 822.15-26.8 822.15-24.6L822.15-24.6Q822.15-23 823.35-21.8L823.35-21.8Q824.15-21 825.72-20.48 827.3-19.95 829.07-19.4 830.85-18.85 832.22-18.2 833.6-17.55 835.1-16.4L835.1-16.4Q838.15-14.15 838.15-9.45 838.15-4.75 834.77-2.05 831.4 0.65 825.87 0.65 820.35 0.65 815.95-1.4L815.95-1.4 815.95-9.3 821.05-9.65 821.05-6.6Q821.05-5.85 821.25-5.5 821.45-5.15 822.47-4.83 823.5-4.5 825.7-4.5ZM841.4-35.65L850.35-35.65 850.35-4.15 853.2-4 853.2 0 841.3 0 841.3-3.8 842.95-3.95Q844.4-4.1 844.4-5.55L844.4-5.55 844.4-30.2Q844.4-31.3 843.15-31.4L843.15-31.4 841.4-31.5 841.4-35.65ZM878.75-24.15L878.75-24.15 878.75-5.55Q878.75-4.75 879.02-4.45 879.3-4.15 880-4.1L880-4.1 881.6-4 881.6 0 873.65 0 873.65-2.9 873.5-2.95Q871 0.65 866.65 0.65L866.65 0.65Q861.55 0.65 859.1-2.6 856.65-5.85 856.65-11.5L856.65-11.5Q856.65-18.3 859.95-22.1 863.25-25.9 869.85-25.9L869.85-25.9Q874.1-25.9 878.75-24.15ZM872.95-7.95L872.95-7.95 872.95-20.9Q871.55-21.55 869.1-21.55L869.1-21.55Q865.75-21.55 864.25-18.85 862.75-16.15 862.75-11.7L862.75-11.7Q862.75-3.6 867.95-3.6L867.95-3.6Q870.15-3.6 871.55-4.93 872.95-6.25 872.95-7.95ZM903.05-0.95L903.05-0.95 903.05-4.75Q900.3-0.85 894.95-0.85L894.95-0.85Q887.2-0.85 887.2-9.5L887.2-9.5 887.2-19.55Q887.2-20.9 885.95-20.95L885.95-20.95 884.35-21.05 884.35-25.15 893.15-25.15 893.15-10.8Q893.15-8.15 893.9-6.8 894.65-5.45 897-5.45 899.35-5.45 900.77-6.9 902.2-8.35 902.2-10.4L902.2-10.4 902.2-19.45Q902.2-20.3 901.92-20.63 901.65-20.95 900.95-20.95L900.95-20.95 899.35-21.05 899.35-25.15 908.15-25.15 908.15-0.95Q908.15 5.1 905.22 7.9 902.3 10.7 896.37 10.7 890.45 10.7 887.15 9.05L887.15 9.05 887.15 2.1 891.9 1.7 891.9 4.1Q891.9 5.45 893.15 5.93 894.4 6.4 896.6 6.4L896.6 6.4Q903.05 6.4 903.05-0.95ZM916.9-9L915.85-26.45 915.85-32.4Q915.85-34.75 918.65-34.75 921.45-34.75 921.45-32.3L921.45-32.3 921.45-26.45 920.45-9 916.9-9ZM918.57 0.85Q917 0.85 916.07-0.1 915.15-1.05 915.15-2.45 915.15-3.85 916.1-4.83 917.05-5.8 918.57-5.8 920.1-5.8 921.05-4.88 922-3.95 922-2.55 922-1.15 921.07-0.15 920.15 0.85 918.57 0.85Z" opacity="1" transform="matrix(1,0,0,1,0,0)" fill="#636365" class="slogan-text-1" data-fill-palette-color="secondary" id="text-1"></path></svg></g></svg></g></svg></g></svg></g><g transform="matrix(1,0,0,1,44.27772393954399,0)"><svg viewBox="0 0 103.44455212091202 68.26251549957868" height="68.26251549957868" width="103.44455212091202"><g><svg xmlns="http://www.w3.org/2000/svg" xmlns:xlink="http://www.w3.org/1999/xlink" xmlns:a="http://ns.adobe.com/AdobeSVGViewerExtensions/3.0/" version="1.1" x="0" y="0" viewBox="0 0 38 25.076" enable-background="new -1 -11.865 40 40" xml:space="preserve" height="68.26251549957868" width="103.44455212091202" class="icon-icon-0" data-fill-palette-color="accent" id="icon-0"><polygon points="0,0 8.517,16.562 29.486,16.562 38,0 0,0 " fill="#636365" data-fill-palette-color="accent"></polygon><path d="M12.411 24.991c1.068 0 1.925-0.386 2.653-1.112 0.728-0.729 1.112-1.627 1.112-2.653 0-1.071-0.385-1.97-1.112-2.697-0.728-0.728-1.585-1.112-2.653-1.112-1.071 0-1.969 0.385-2.697 1.112-0.728 0.728-1.071 1.626-1.071 2.697 0 1.026 0.343 1.925 1.071 2.653C10.442 24.605 11.34 24.991 12.411 24.991L12.411 24.991z" fill="#636365" data-fill-palette-color="accent"></path><path d="M25.762 25.076c-1.07 0-1.925-0.385-2.653-1.112-0.728-0.728-1.111-1.626-1.111-2.653 0-1.068 0.384-1.969 1.111-2.697 0.729-0.725 1.583-1.112 2.653-1.112 1.071 0 1.97 0.388 2.697 1.112 0.728 0.729 1.068 1.629 1.068 2.697 0 1.027-0.341 1.926-1.068 2.653S26.833 25.076 25.762 25.076L25.762 25.076z" fill="#636365" data-fill-palette-color="accent"></path></svg></g></svg></g><g></g></svg></g></svg></g></svg></g></svg></g><defs></defs></svg><rect width="320" height="360" fill="none" stroke="none" visibility="hidden"></rect></g></svg></g></svg>